<?xml version="1.0" encoding="UTF-8"?>
<!DOCTYPE svg PUBLIC "-//W3C//DTD SVG 1.1//EN" "http://www.w3.org/Graphics/SVG/1.1/DTD/svg11.dtd">
<!-- Creator: CorelDRAW -->
<svg xmlns="http://www.w3.org/2000/svg" xml:space="preserve" width="392px" height="376px" version="1.1" style="shape-rendering:geometricPrecision; text-rendering:geometricPrecision; image-rendering:optimizeQuality; fill-rule:evenodd; clip-rule:evenodd"
viewBox="0 0 414.875 398.356"
 xmlns:xlink="http://www.w3.org/1999/xlink"
 xmlns:xodm="http://www.corel.com/coreldraw/odm/2003">
 <defs>
  <style type="text/css">
   <![CDATA[
    .fil0 {fill:#00CCFF}
    .fil1 {fill:#94A3B8}
   ]]>
  </style>
 </defs>
 <g id="Camada_x0020_1">
  <metadata id="CorelCorpID_0Corel-Layer"/>
  <path class="fil0" d="M206.594 16.951c35.027,0 67.841,9.453 96.05,25.932 11.522,-6.635 24.43,-9.953 37.336,-9.953 19.163,0 38.33,7.313 52.956,21.94 14.626,14.625 21.939,33.794 21.939,52.955 0,19.162 -7.313,38.33 -21.939,52.956l-1.166 1.167c3.603,14.644 5.527,29.95 5.527,45.706 0,105.321 -85.381,190.702 -190.703,190.702 -105.321,0 -190.702,-85.381 -190.702,-190.702 0,-105.322 85.381,-190.703 190.702,-190.703zm-112.348 209.057c-13.732,-13.733 -13.732,-35.999 0,-49.732 13.733,-13.733 35.999,-13.733 49.733,0l38.909 38.909 132.225 -132.226c13.734,-13.732 36,-13.732 49.733,0 13.732,13.733 13.732,35.999 0,49.733l-157.092 157.092c-13.734,13.732 -36,13.732 -49.732,0l-63.776 -63.776z"/>
  <path class="fil1" d="M190.702 0c35.027,0 67.841,9.453 96.05,25.932 11.522,-6.635 24.43,-9.953 37.336,-9.953 19.163,0 38.33,7.313 52.956,21.939 14.626,14.626 21.939,33.794 21.939,52.956 0,19.162 -7.313,38.329 -21.939,52.956l-1.166 1.166c3.603,14.645 5.527,29.95 5.527,45.706 0,105.322 -85.381,190.703 -190.703,190.703 -105.321,0 -190.702,-85.381 -190.702,-190.703 0,-105.321 85.381,-190.702 190.702,-190.702zm-112.348 209.057c-13.732,-13.733 -13.732,-35.999 0,-49.732 13.733,-13.733 35.999,-13.733 49.733,0l38.909 38.909 132.225 -132.226c13.734,-13.732 36,-13.732 49.733,0 13.732,13.733 13.732,35.999 0,49.732l-157.092 157.093c-13.733,13.732 -36,13.732 -49.732,0l-63.776 -63.776z"/>
 </g>
</svg>
